<svg width="294" height="258" viewBox="0 0 294 258" fill="none" xmlns="http://www.w3.org/2000/svg">
<path d="M213.32 48.5641C221.642 60.2725 227.104 74.3226 228.405 89.4134L268.977 26.9687C274.178 18.9029 271.838 7.97508 263.775 2.77135C255.713 -2.43237 245.049 -0.0907006 239.588 7.97507L213.32 48.5641ZM97.8454 74.8429L80.9404 48.8243L54.4124 7.97507C49.2109 -0.0907006 38.2876 -2.43237 30.2252 2.77135C22.1628 7.97508 19.8221 18.9029 25.0236 26.9687L65.5958 89.4134L92.9039 131.564C112.41 161.485 152.202 169.811 182.111 150.557C212.02 131.043 220.342 91.2347 201.096 61.3132C181.59 31.3918 141.799 23.0659 111.89 42.3197C108.249 44.6613 105.128 47.2632 102.267 50.1252L105.648 55.0688L122.293 80.567C124.373 76.9244 127.494 74.0624 131.135 71.7207C144.92 62.8744 163.125 66.7772 172.228 80.3068C181.07 94.0967 177.169 112.57 163.645 121.416C149.861 130.263 131.656 126.36 122.813 112.57L108.509 90.7143L97.8454 74.8429Z" fill="white"/>
<path d="M294 206.002C294 207.57 293.479 209.138 292.698 210.444C291.916 211.751 291.135 212.535 290.614 213.057L289.832 213.841L288.79 213.319C287.488 212.796 286.185 212.273 284.362 211.751C282.539 211.228 280.715 210.967 278.631 210.967C271.077 210.967 267.691 214.625 267.691 222.726V255.913H252.061V219.329C252.061 212.273 254.406 206.524 258.834 202.605C263.262 198.685 269.254 196.856 276.808 196.856C281.757 196.856 285.404 197.64 288.53 198.946C292.177 199.992 294 202.605 294 206.002Z" fill="white"/>
<path d="M186.157 237.66C186.157 243.651 183.821 248.34 178.89 251.987C174.218 255.373 167.73 257.197 159.424 257.197C155.531 257.197 151.898 256.936 148.524 256.415C145.15 255.894 142.295 255.113 139.959 254.331C137.882 253.55 135.806 252.768 134.249 251.987C132.432 251.205 131.653 250.684 131.134 250.163L130.096 249.382L130.875 248.079L135.547 240.004L136.585 238.441L138.142 239.483C138.661 239.744 139.959 240.525 140.478 240.786C141.776 241.307 143.073 241.828 144.89 242.349C146.707 242.87 149.043 243.391 151.119 243.912C153.455 244.433 156.05 244.433 158.905 244.433C162.279 244.433 165.134 243.912 167.47 243.13C169.287 242.349 170.066 241.307 170.066 239.744C170.066 238.181 169.547 237.139 168.508 236.618C167.73 236.097 165.653 235.055 161.241 234.794L152.936 233.752C149.562 233.492 146.966 232.971 144.631 232.189C142.035 231.408 139.699 230.366 137.882 229.064C136.066 227.501 134.508 225.938 133.47 223.593C132.432 221.249 131.913 218.904 131.913 216.039C131.913 213.434 132.432 211.09 133.47 208.745C134.508 206.401 136.066 204.578 138.142 202.494C140.218 200.67 143.073 199.368 146.188 198.586C149.562 197.544 153.455 197.284 157.867 197.284C165.394 197.284 171.623 198.065 175.776 199.889C180.447 201.712 183.043 204.578 183.043 207.964C183.043 209.006 182.783 210.048 182.524 210.829C182.264 211.611 181.745 212.132 181.486 212.653L181.226 212.913C180.707 213.434 180.188 213.955 179.928 214.216L179.669 214.476C179.409 214.737 179.15 214.997 178.631 214.997L177.592 215.518L176.814 214.737C176.814 214.737 176.295 214.216 175.257 213.695C174.218 212.913 172.921 212.392 171.623 211.871C170.066 211.35 167.989 210.829 165.913 210.308C163.577 209.787 160.982 209.527 158.386 209.527C154.493 209.527 151.638 210.048 149.821 211.09C148.264 211.871 147.486 212.913 147.486 214.476C147.486 215.779 148.005 216.56 149.043 217.342C150.6 218.123 152.417 218.644 155.272 219.165L166.432 220.728C172.661 221.509 177.592 223.333 181.226 225.938C184.341 228.022 186.157 232.189 186.157 237.66Z" fill="white"/>
<path d="M244.706 208.374C243.667 206.037 242.109 203.959 239.772 202.141C237.435 200.323 234.838 199.025 231.982 197.986C228.866 196.947 225.491 196.428 221.596 196.428C216.922 196.428 213.027 197.207 209.132 198.765C205.497 200.323 202.121 202.401 199.265 204.998C196.409 207.595 194.332 210.971 192.774 214.866C191.216 218.762 190.437 222.917 190.437 227.332C190.437 232.006 191.216 236.161 192.774 240.057C194.332 243.692 196.669 246.809 199.265 249.406C202.121 252.003 205.237 254.08 209.132 255.379C212.767 256.677 216.662 257.197 220.817 257.197C223.673 257.197 226.529 256.937 229.126 256.677C231.723 256.158 233.8 255.638 235.617 255.119C237.695 254.34 239.253 253.82 240.551 253.041C241.849 252.522 242.628 252.003 243.407 251.483L244.706 250.704L243.927 249.406L239.253 240.576L238.474 239.278L236.916 240.057C236.656 240.057 236.396 240.316 236.137 240.316C235.877 240.576 235.358 240.836 234.838 240.836C234.059 241.095 233.281 241.615 231.982 242.134C230.684 242.654 229.386 242.913 228.087 243.173C226.529 243.433 224.971 243.692 223.154 243.692C217.961 243.692 214.066 242.654 211.469 240.576C209.392 239.018 208.094 237.2 207.315 234.863C207.834 234.863 208.613 234.863 209.132 234.863C210.431 234.863 211.729 234.863 213.287 234.863C219.519 234.863 224.712 234.343 228.866 233.564C233.021 232.785 236.396 231.487 238.993 229.929C241.59 228.111 243.407 226.293 244.446 223.956C245.484 221.618 246.004 219.281 246.004 216.424C246.263 213.308 245.744 210.711 244.706 208.374ZM230.424 218.502C230.165 219.281 229.386 219.8 228.607 220.58C227.308 221.359 225.491 221.878 223.413 222.397C220.817 222.917 217.701 223.177 214.066 223.177H209.652C208.613 223.177 207.834 223.177 206.795 223.177C207.055 221.878 207.315 220.58 207.834 219.281C208.613 217.463 209.392 215.905 210.69 214.607C212.248 213.048 213.546 212.01 215.364 211.231C217.182 210.451 219.259 209.932 221.596 209.932C224.712 209.932 227.049 210.451 228.866 211.75C230.684 212.789 231.463 214.347 231.463 216.424C230.944 216.944 230.944 217.723 230.424 218.502Z" fill="white"/>
<path d="M61.6245 226.953C61.6245 231.385 60.8477 235.296 59.2941 238.946C57.7406 242.596 55.9281 245.725 53.3388 248.332C53.0799 248.593 53.0799 248.593 52.821 248.854C50.2317 251.461 46.8657 253.546 43.2407 255.111C41.1693 255.893 39.0979 256.414 36.7675 256.936C36.5086 256.936 36.5086 256.936 36.2497 256.936C34.4372 257.196 32.6247 257.197 30.8122 257.197H30.5533C28.7408 257.197 26.9283 256.936 25.1159 256.936C24.8569 256.936 24.8569 256.936 24.598 256.936C22.2677 256.675 20.1963 255.893 18.1248 255.111C14.2409 253.546 11.1338 251.461 8.54457 248.854C8.28564 248.854 8.28564 248.593 8.02672 248.332C5.69638 245.725 3.8839 242.596 2.33034 238.685C0.776783 234.514 0 229.821 0 224.346V180.024C0 177.417 0.776783 175.592 2.33034 174.288C3.8839 172.984 5.69638 172.463 8.02672 172.463C9.32135 172.463 10.8749 172.724 12.1695 172.984C12.6874 173.245 12.9463 173.245 13.2052 173.245C13.7231 173.506 14.2409 173.506 14.4999 173.766L15.2767 174.288C15.2767 174.288 15.2767 186.542 15.2767 199.317C15.2767 208.964 15.2767 219.132 15.2767 224.607C15.2767 227.475 15.5356 229.3 15.7945 230.603C16.0534 231.385 16.0534 231.907 16.3124 232.689C16.3124 232.95 16.3124 232.95 16.5713 233.21C16.8302 233.993 17.3481 235.035 18.1248 235.818C18.6427 236.339 18.9016 237.121 19.4195 237.643C19.6784 237.903 19.9373 238.164 20.1963 238.425C21.232 239.468 22.5266 240.511 23.8212 241.032C25.6337 241.814 27.7051 242.336 29.7765 242.336C31.8479 242.336 33.9193 241.814 35.7318 241.032C37.5443 240.25 39.0979 239.207 40.3925 237.643C41.6871 236.078 42.7228 234.514 43.4996 232.689C44.2764 230.864 44.5353 228.778 44.5353 226.171C44.5353 223.824 44.2764 221.739 43.4996 219.653C42.7228 217.828 41.9461 216.264 40.3925 214.699C39.0979 213.396 37.5443 212.353 35.7318 211.31C33.9193 210.528 31.8479 210.006 29.7765 210.006C27.4462 210.006 25.3748 210.528 23.5623 211.31C22.2677 211.831 20.973 212.874 19.6784 213.917V198.274C22.7855 196.71 25.8926 195.928 29.7765 195.667C30.2944 195.667 30.8122 195.667 31.3301 195.667C35.4729 195.667 39.3568 196.449 42.9818 198.013C43.4996 198.274 44.2764 198.535 44.7942 198.795C47.6424 200.36 50.2317 202.185 52.3031 204.271C54.8924 206.878 56.9638 210.267 58.5173 213.917C59.5531 216.264 60.0709 218.871 60.5888 221.478C61.6245 223.825 61.6245 225.389 61.6245 226.953Z" fill="white"/>
<path d="M124.533 199.538C124.533 199.538 121.159 197.712 116.747 197.712C112.334 197.712 108.96 200.321 108.96 203.973V229.541C108.96 233.716 107.922 237.107 105.846 239.195C103.769 241.543 100.914 242.586 96.5022 242.586C92.3496 242.586 89.2351 241.543 87.1587 239.195C85.3419 237.107 84.3038 233.977 84.0442 230.063C84.0442 229.802 84.0442 229.28 84.0442 229.02V199.538C84.0442 199.538 80.9297 197.712 76.2579 197.712C71.8457 197.712 68.4717 200.321 68.4717 203.973V231.889C68.4717 235.803 69.2503 239.455 70.548 242.586C72.1053 245.978 73.9221 248.587 76.2579 250.674C78.8534 253.022 81.9679 254.588 85.0824 255.631C88.4564 256.675 92.09 257.197 96.2427 257.197C100.395 257.197 104.029 256.675 107.403 255.631C110.777 254.588 113.632 253.022 116.227 250.674C118.823 248.326 120.64 245.717 121.937 242.586C123.235 239.455 124.014 235.803 124.014 232.15" fill="white"/>
</svg>
